<svg xmlns="http://www.w3.org/2000/svg" viewBox="0 11.300000190734863 380.1000061035156 97.29000091552734" data-asc="0.968" width="380.1000061035156" height="97.29000091552734"><defs/><g fill="#000000"><g transform="translate(0, 0)"><path d="M0 48.40L15.45 13.40L25.20 13.40L40.70 48.40L30.40 48.40L18.30 18.25L22.20 18.25L10.10 48.40L0 48.40M8.45 41.60L11 34.30L28.10 34.30L30.65 41.60L8.45 41.60ZM56.90 48.85Q52.40 48.85 48.88 47.05Q45.35 45.25 43.35 42.07Q41.35 38.90 41.35 34.80Q41.35 30.70 43.35 27.55Q45.35 24.40 48.88 22.62Q52.40 20.85 56.90 20.85Q61.50 20.85 64.85 22.80Q68.20 24.75 69.60 28.30L62.25 32.05Q61.30 30.15 59.90 29.27Q58.50 28.40 56.85 28.40Q55.20 28.40 53.85 29.15Q52.50 29.90 51.73 31.32Q50.95 32.75 50.95 34.80Q50.95 36.90 51.73 38.35Q52.50 39.80 53.85 40.55Q55.20 41.30 56.85 41.30Q58.50 41.30 59.90 40.42Q61.30 39.55 62.25 37.65L69.60 41.40Q68.20 44.95 64.85 46.90Q61.50 48.85 56.90 48.85ZM87.40 48.85Q82.60 48.85 79.03 47.02Q75.45 45.20 73.48 42.02Q71.50 38.85 71.50 34.80Q71.50 30.75 73.43 27.57Q75.35 24.40 78.75 22.62Q82.15 20.85 86.40 20.85Q90.40 20.85 93.70 22.47Q97 24.10 98.95 27.25Q100.90 30.40 100.90 34.90Q100.90 35.40 100.85 36.05Q100.80 36.70 100.75 37.25L79.30 37.25L79.30 32.25L95.70 32.25L92.10 33.65Q92.15 31.80 91.43 30.45Q90.70 29.10 89.43 28.35Q88.15 27.60 86.45 27.60Q84.75 27.60 83.48 28.35Q82.20 29.10 81.50 30.47Q80.80 31.85 80.80 33.70L80.80 35.15Q80.80 37.15 81.63 38.60Q82.45 40.05 84 40.82Q85.55 41.60 87.70 41.60Q89.70 41.60 91.13 41.02Q92.55 40.45 93.95 39.25L98.95 44.45Q97 46.60 94.15 47.73Q91.30 48.85 87.40 48.85ZM116.10 48.40L131.55 13.40L141.30 13.40L156.80 48.40L146.50 48.40L134.40 18.25L138.30 18.25L126.20 48.40L116.10 48.40M124.55 41.60L127.10 34.30L144.20 34.30L146.75 41.60L124.55 41.60ZM176.20 48.85Q172.75 48.85 170.30 47.32Q167.85 45.80 166.57 42.72Q165.30 39.65 165.30 34.85Q165.30 30.00 166.50 26.92Q167.70 23.85 170.13 22.35Q172.55 20.85 176.20 20.85Q179.90 20.85 182.93 22.57Q185.95 24.30 187.72 27.42Q189.50 30.55 189.50 34.85Q189.50 39.15 187.72 42.30Q185.95 45.45 182.93 47.15Q179.90 48.85 176.20 48.85M159.15 58.10L159.15 21.30L168.20 21.30L168.20 25.90L168.15 34.85L168.65 43.85L168.65 58.10L159.15 58.10M174.20 41.30Q175.80 41.30 177.07 40.55Q178.35 39.80 179.13 38.35Q179.90 36.90 179.90 34.85Q179.90 32.80 179.13 31.35Q178.35 29.90 177.07 29.15Q175.80 28.40 174.20 28.40Q172.60 28.40 171.32 29.15Q170.05 29.90 169.28 31.35Q168.50 32.80 168.50 34.85Q168.50 36.90 169.28 38.35Q170.05 39.80 171.32 40.55Q172.60 41.30 174.20 41.30ZM210.95 48.85Q207.50 48.85 205.05 47.32Q202.60 45.80 201.32 42.72Q200.05 39.65 200.05 34.85Q200.05 30.00 201.25 26.92Q202.45 23.85 204.88 22.35Q207.30 20.85 210.95 20.85Q214.65 20.85 217.68 22.57Q220.70 24.30 222.47 27.42Q224.25 30.55 224.25 34.85Q224.25 39.15 222.47 42.30Q220.70 45.45 217.68 47.15Q214.65 48.85 210.95 48.85M193.90 58.10L193.90 21.30L202.95 21.30L202.95 25.90L202.90 34.85L203.40 43.85L203.40 58.10L193.90 58.10M208.95 41.30Q210.55 41.30 211.82 40.55Q213.10 39.80 213.88 38.35Q214.65 36.90 214.65 34.85Q214.65 32.80 213.88 31.35Q213.10 29.90 211.82 29.15Q210.55 28.40 208.95 28.40Q207.35 28.40 206.07 29.15Q204.80 29.90 204.03 31.35Q203.25 32.80 203.25 34.85Q203.25 36.90 204.03 38.35Q204.80 39.80 206.07 40.55Q207.35 41.30 208.95 41.30ZM228.65 48.40L228.65 21.30L237.70 21.30L237.70 29.20L236.35 26.95Q237.55 23.90 240.25 22.37Q242.95 20.85 246.80 20.85L246.80 29.40Q246.15 29.30 245.68 29.27Q245.20 29.25 244.65 29.25Q241.75 29.25 239.95 30.82Q238.15 32.40 238.15 35.95L238.15 48.40L228.65 48.40ZM264.40 48.85Q259.95 48.85 256.50 47.05Q253.05 45.25 251.07 42.07Q249.10 38.90 249.10 34.80Q249.10 30.70 251.07 27.55Q253.05 24.40 256.50 22.62Q259.95 20.85 264.40 20.85Q268.85 20.85 272.32 22.62Q275.80 24.40 277.75 27.55Q279.70 30.70 279.70 34.80Q279.70 38.90 277.75 42.07Q275.80 45.25 272.32 47.05Q268.85 48.85 264.40 48.85M264.40 41.30Q266.05 41.30 267.32 40.55Q268.60 39.80 269.35 38.32Q270.10 36.85 270.10 34.80Q270.10 32.75 269.35 31.32Q268.60 29.90 267.32 29.15Q266.05 28.40 264.40 28.40Q262.80 28.40 261.52 29.15Q260.25 29.90 259.48 31.32Q258.70 32.75 258.70 34.80Q258.70 36.85 259.48 38.32Q260.25 39.80 261.52 40.55Q262.80 41.30 264.40 41.30ZM291.65 48.40L280.50 21.30L290.25 21.30L299.15 43.95L294.25 43.95L303.60 21.30L312.65 21.30L301.45 48.40L291.65 48.40ZM329.30 48.85Q324.50 48.85 320.93 47.02Q317.35 45.20 315.38 42.02Q313.40 38.85 313.40 34.80Q313.40 30.75 315.32 27.57Q317.25 24.40 320.65 22.62Q324.05 20.85 328.30 20.85Q332.30 20.85 335.60 22.47Q338.90 24.10 340.85 27.25Q342.80 30.40 342.80 34.90Q342.80 35.40 342.75 36.05Q342.70 36.70 342.65 37.25L321.20 37.25L321.20 32.25L337.60 32.25L334 33.65Q334.05 31.80 333.32 30.45Q332.60 29.10 331.32 28.35Q330.05 27.60 328.35 27.60Q326.65 27.60 325.38 28.35Q324.10 29.10 323.40 30.47Q322.70 31.85 322.70 33.70L322.70 35.15Q322.70 37.15 323.53 38.60Q324.35 40.05 325.90 40.82Q327.45 41.60 329.60 41.60Q331.60 41.60 333.03 41.02Q334.45 40.45 335.85 39.25L340.85 44.45Q338.90 46.60 336.05 47.73Q333.20 48.85 329.30 48.85ZM359.00 48.85Q355.30 48.85 352.28 47.13Q349.25 45.40 347.45 42.27Q345.65 39.15 345.65 34.80Q345.65 30.50 347.45 27.37Q349.25 24.25 352.28 22.55Q355.30 20.85 359.00 20.85Q362.50 20.85 364.93 22.35Q367.35 23.85 368.60 26.95Q369.85 30.05 369.85 34.80Q369.85 39.65 368.65 42.75Q367.45 45.85 365.05 47.35Q362.65 48.85 359.00 48.85M361.00 41.30Q362.60 41.30 363.88 40.55Q365.15 39.80 365.90 38.32Q366.65 36.85 366.65 34.80Q366.65 32.75 365.90 31.32Q365.15 29.90 363.88 29.15Q362.60 28.40 361.00 28.40Q359.35 28.40 358.08 29.15Q356.80 29.90 356.05 31.32Q355.30 32.75 355.30 34.80Q355.30 36.85 356.05 38.32Q356.80 39.80 358.08 40.55Q359.35 41.30 361.00 41.30M366.95 48.40L366.95 43.75L367.00 34.80L366.50 25.85L366.50 11.30L376.00 11.30L376.00 48.40L366.95 48.40Z"/></g><g transform="translate(0, 50.04)"><path d="M11.35 48.40L0 13.40L10.20 13.40L19.75 43.70L14.60 43.70L24.65 13.40L33.75 13.40L43.25 43.70L38.30 43.70L48.15 13.40L57.60 13.40L46.25 48.40L35.65 48.40L27.55 22.65L30.40 22.65L21.95 48.40L11.35 48.40ZM75.05 48.85Q70.60 48.85 67.15 47.05Q63.70 45.25 61.73 42.07Q59.75 38.90 59.75 34.80Q59.75 30.70 61.73 27.55Q63.70 24.40 67.15 22.62Q70.60 20.85 75.05 20.85Q79.50 20.85 82.98 22.62Q86.45 24.40 88.40 27.55Q90.35 30.70 90.35 34.80Q90.35 38.90 88.40 42.07Q86.45 45.25 82.98 47.05Q79.50 48.85 75.05 48.85M75.05 41.30Q76.70 41.30 77.98 40.55Q79.25 39.80 80 38.32Q80.75 36.85 80.75 34.80Q80.75 32.75 80 31.32Q79.25 29.90 77.98 29.15Q76.70 28.40 75.05 28.40Q73.45 28.40 72.18 29.15Q70.90 29.90 70.13 31.32Q69.35 32.75 69.35 34.80Q69.35 36.85 70.13 38.32Q70.90 39.80 72.18 40.55Q73.45 41.30 75.05 41.30ZM108.35 48.85Q103.90 48.85 100.45 47.05Q97.00 45.25 95.03 42.07Q93.05 38.90 93.05 34.80Q93.05 30.70 95.03 27.55Q97.00 24.40 100.45 22.62Q103.90 20.85 108.35 20.85Q112.80 20.85 116.28 22.62Q119.75 24.40 121.70 27.55Q123.65 30.70 123.65 34.80Q123.65 38.90 121.70 42.07Q119.75 45.25 116.28 47.05Q112.80 48.85 108.35 48.85M108.35 41.30Q110.00 41.30 111.28 40.55Q112.55 39.80 113.30 38.32Q114.05 36.85 114.05 34.80Q114.05 32.75 113.30 31.32Q112.55 29.90 111.28 29.15Q110.00 28.40 108.35 28.40Q106.75 28.40 105.48 29.15Q104.20 29.90 103.43 31.32Q102.65 32.75 102.65 34.80Q102.65 36.85 103.43 38.32Q104.20 39.80 105.48 40.55Q106.75 41.30 108.35 41.30ZM139.85 48.85Q136.15 48.85 133.13 47.13Q130.10 45.40 128.30 42.27Q126.50 39.15 126.50 34.80Q126.50 30.50 128.30 27.37Q130.10 24.25 133.13 22.55Q136.15 20.85 139.85 20.85Q143.35 20.85 145.78 22.35Q148.20 23.85 149.45 26.95Q150.70 30.05 150.70 34.80Q150.70 39.65 149.50 42.75Q148.30 45.85 145.90 47.35Q143.50 48.85 139.85 48.85M141.85 41.30Q143.45 41.30 144.73 40.55Q146.00 39.80 146.75 38.32Q147.50 36.85 147.50 34.80Q147.50 32.75 146.75 31.32Q146.00 29.90 144.73 29.15Q143.45 28.40 141.85 28.40Q140.20 28.40 138.93 29.15Q137.65 29.90 136.90 31.32Q136.15 32.75 136.15 34.80Q136.15 36.85 136.90 38.32Q137.65 39.80 138.93 40.55Q140.20 41.30 141.85 41.30M147.80 48.40L147.80 43.75L147.85 34.80L147.35 25.85L147.35 11.30L156.85 11.30L156.85 48.40L147.80 48.40ZM169.40 48.40L159.75 21.30L168.75 21.30L176.40 43.95L172.10 43.95L180.05 21.30L188.15 21.30L195.80 43.95L191.60 43.95L199.50 21.30L207.85 21.30L198.20 48.40L189.00 48.40L182.50 29.65L185.30 29.65L178.60 48.40L169.40 48.40ZM224.35 48.85Q219.90 48.85 216.45 47.05Q213.00 45.25 211.03 42.07Q209.05 38.90 209.05 34.80Q209.05 30.70 211.03 27.55Q213.00 24.40 216.45 22.62Q219.90 20.85 224.35 20.85Q228.80 20.85 232.28 22.62Q235.75 24.40 237.70 27.55Q239.65 30.70 239.65 34.80Q239.65 38.90 237.70 42.07Q235.75 45.25 232.28 47.05Q228.80 48.85 224.35 48.85M224.35 41.30Q226.00 41.30 227.28 40.55Q228.55 39.80 229.30 38.32Q230.05 36.85 230.05 34.80Q230.05 32.75 229.30 31.32Q228.55 29.90 227.28 29.15Q226.00 28.40 224.35 28.40Q222.75 28.40 221.48 29.15Q220.20 29.90 219.43 31.32Q218.65 32.75 218.65 34.80Q218.65 36.85 219.43 38.32Q220.20 39.80 221.48 40.55Q222.75 41.30 224.35 41.30ZM244.05 48.40L244.05 21.30L253.10 21.30L253.10 29.20L251.75 26.95Q252.95 23.90 255.65 22.37Q258.35 20.85 262.20 20.85L262.20 29.40Q261.55 29.30 261.08 29.27Q260.60 29.25 260.05 29.25Q257.15 29.25 255.35 30.82Q253.55 32.40 253.55 35.95L253.55 48.40L244.05 48.40ZM274.10 43.40L274.35 32.05L285.40 21.30L296.65 21.30L284.40 33.95L279.55 37.85L274.10 43.40M266.20 48.40L266.20 11.30L275.70 11.30L275.70 48.40L266.20 48.40M286.10 48.40L277.80 38L283.70 30.70L297.60 48.40L286.10 48.40ZM300.50 48.40L300.50 21.30L310.00 21.30L310.00 48.40L300.50 48.40M305.25 18.30Q302.65 18.30 301.05 16.85Q299.45 15.40 299.45 13.25Q299.45 11.10 301.05 9.65Q302.65 8.20 305.25 8.20Q307.85 8.20 309.45 9.57Q311.05 10.95 311.05 13.10Q311.05 15.35 309.48 16.82Q307.90 18.30 305.25 18.30ZM333.80 20.85Q336.95 20.85 339.50 22.12Q342.05 23.40 343.53 26.05Q345 28.70 345 32.90L345 48.40L335.50 48.40L335.50 34.45Q335.50 31.55 334.33 30.22Q333.15 28.90 331.05 28.90Q329.55 28.90 328.30 29.57Q327.05 30.25 326.35 31.65Q325.65 33.05 325.65 35.30L325.65 48.40L316.15 48.40L316.15 21.30L325.20 21.30L325.20 29.00L323.45 26.75Q325 23.80 327.70 22.32Q330.40 20.85 333.80 20.85ZM364.20 58.55Q360.30 58.55 356.78 57.65Q353.25 56.75 350.75 55L354.20 48.35Q355.90 49.70 358.43 50.48Q360.95 51.25 363.35 51.25Q367.20 51.25 368.90 49.57Q370.60 47.90 370.60 44.70L370.60 41.50L371.10 33.90L371.05 26.25L371.05 21.30L380.10 21.30L380.10 43.45Q380.10 51.15 375.95 54.85Q371.80 58.55 364.20 58.55M362.55 47Q358.95 47 355.93 45.38Q352.90 43.75 351.08 40.82Q349.25 37.90 349.25 33.90Q349.25 29.90 351.08 26.97Q352.90 24.05 355.93 22.45Q358.95 20.85 362.55 20.85Q366.00 20.85 368.45 22.22Q370.90 23.60 372.18 26.50Q373.45 29.40 373.45 33.90Q373.45 38.40 372.18 41.30Q370.90 44.20 368.45 45.60Q366.00 47 362.55 47M364.80 39.45Q366.50 39.45 367.83 38.75Q369.15 38.05 369.93 36.80Q370.70 35.55 370.70 33.90Q370.70 32.25 369.93 31.00Q369.15 29.75 367.83 29.07Q366.50 28.40 364.80 28.40Q363.10 28.40 361.75 29.07Q360.40 29.75 359.63 31.00Q358.85 32.25 358.85 33.90Q358.85 35.55 359.63 36.80Q360.40 38.05 361.75 38.75Q363.10 39.45 364.80 39.45Z"/></g></g></svg>